<?xml version="1.0" standalone="no"?>
<!DOCTYPE svg PUBLIC "-//W3C//DTD SVG 20010904//EN"
 "http://www.w3.org/TR/2001/REC-SVG-20010904/DTD/svg10.dtd">
<svg version="1.0" xmlns="http://www.w3.org/2000/svg"
 width="500.000000pt" height="500.000000pt" viewBox="0 0 500.000000 500.000000"
 preserveAspectRatio="xMidYMid meet">
<metadata>
Created by potrace 1.14, written by Peter Selinger 2001-2017
</metadata>
<g transform="translate(0.000000,500.000000) scale(0.100000,-0.100000)"
fill="#000000" stroke="none">
<path d="M2255 4853 c8 -18 8 -29 4 -143 -2 -51 1 -72 17 -95 37 -57 122 -123
143 -111 11 7 22 -107 11 -118 -18 -18 -59 3 -71 38 -15 41 -61 66 -136 72
l-53 5 15 -28 c9 -15 20 -40 25 -55 14 -41 54 -62 114 -61 28 1 44 -1 36 -4
-21 -8 -160 -102 -186 -124 -20 -19 -21 -18 -42 1 -12 12 -22 25 -22 29 0 11
-59 33 -70 26 -20 -12 -20 36 -1 61 20 26 46 101 55 164 7 51 -12 85 -73 127
-30 21 -62 50 -70 65 -17 29 -73 78 -89 78 -16 0 -61 -151 -64 -215 -3 -92 7
-117 72 -179 32 -31 64 -56 72 -57 29 -1 50 -8 64 -20 36 -29 -51 -52 -111
-29 -39 15 -22 -5 32 -37 56 -32 158 -56 184 -42 23 12 29 11 29 -1 0 -5 -9
-10 -20 -10 -11 0 -20 -5 -20 -12 0 -17 -51 -68 -67 -68 -19 0 -187 114 -239
162 -50 46 -66 99 -38 129 20 23 21 77 1 115 -14 26 -14 25 -43 -55 -27 -76
-29 -80 -38 -54 -19 59 -71 95 -156 106 l-45 6 40 -32 c21 -18 63 -56 93 -85
30 -29 68 -59 85 -66 18 -8 55 -35 82 -61 28 -26 74 -63 103 -83 29 -19 50
-37 48 -39 -8 -8 -81 35 -152 89 -101 77 -124 91 -174 113 -25 11 -60 27 -78
37 -18 10 -63 24 -100 31 -59 10 -73 18 -115 60 -27 26 -54 47 -61 48 -6 0
-19 2 -28 4 -31 6 -97 -15 -138 -43 -21 -15 -39 -30 -40 -33 0 -7 188 -102
208 -105 7 -1 38 11 70 27 88 45 103 42 317 -57 17 -8 65 -43 108 -79 43 -36
100 -74 128 -86 64 -28 59 -33 -11 -10 -68 22 -130 32 -130 22 0 -5 -14 -14
-30 -21 -26 -11 -37 -10 -68 4 -34 15 -74 20 -129 17 -13 0 -48 -23 -78 -51
-30 -27 -63 -50 -73 -51 -9 0 -119 0 -244 -1 -202 0 -227 -2 -226 -17 0 -15
-6 -149 -17 -406 -2 -55 -7 -172 -10 -260 -4 -88 -8 -200 -10 -250 -2 -49 -7
-170 -11 -267 l-6 -178 49 0 50 0 53 153 c51 148 126 347 154 410 8 18 27 61
42 97 46 103 112 227 159 299 41 61 117 151 128 151 3 0 -5 -28 -19 -62 -13
-34 -23 -63 -21 -64 2 -2 43 30 92 71 50 41 116 89 148 107 32 18 78 47 102
65 31 23 57 32 94 35 28 3 51 1 51 -3 0 -3 -16 -33 -35 -65 -19 -32 -35 -64
-35 -71 0 -23 -18 -14 -40 22 -12 19 -25 35 -28 35 -17 -1 -31 -17 -37 -43 -6
-23 -12 -28 -30 -23 -29 7 -49 -16 -41 -48 4 -17 15 -26 36 -31 16 -4 30 -10
30 -14 0 -4 11 -14 25 -21 20 -11 23 -18 18 -39 -3 -14 -8 -29 -10 -33 -4 -8
-53 19 -64 35 -7 10 -70 -55 -81 -83 -4 -11 -1 -23 8 -30 8 -7 14 -9 14 -5 0
5 9 -2 20 -14 18 -22 21 -22 50 -8 25 13 30 13 30 1 0 -8 -10 -15 -22 -15 -18
-1 -19 -2 -5 -6 15 -4 16 -7 5 -21 -10 -12 -10 -14 0 -8 9 5 11 -5 10 -43 -3
-52 -15 -61 -33 -24 -11 20 -12 20 -48 -12 -42 -38 -43 -42 -19 -84 18 -32 41
-34 70 -4 8 8 16 13 18 11 1 -2 5 -39 9 -83 13 -171 38 -272 100 -395 31 -63
110 -183 131 -201 12 -9 14 -77 14 -401 l0 -390 -37 -66 c-20 -37 -56 -103
-80 -146 -137 -248 -278 -553 -353 -761 -18 -49 -36 -99 -41 -110 -32 -76 -49
-210 -34 -268 39 -152 185 -166 388 -37 75 48 81 50 118 40 l39 -11 0 -68 0
-68 -222 -1 c-123 0 -228 -1 -234 -1 -6 -1 -12 -24 -13 -56 l-1 -55 236 -2
237 -3 4 -24 c5 -36 8 -36 51 -2 l40 31 265 0 266 0 3 -23 c5 -34 54 -36 69
-3 11 24 16 25 93 25 44 0 87 -5 94 -11 9 -8 20 -8 37 0 15 7 123 11 310 11
158 0 289 2 292 4 2 3 5 28 7 56 2 45 0 51 -19 52 -11 1 -116 1 -232 1 -117 1
-213 5 -214 9 -6 45 -2 54 21 54 27 0 33 21 18 64 -5 15 -4 28 3 37 8 10 4 20
-17 41 l-28 28 0 283 c-1 156 2 289 6 295 10 17 55 -19 78 -63 11 -22 26 -40
32 -40 7 0 31 -20 55 -46 41 -42 43 -49 45 -107 1 -62 1 -62 8 -17 7 47 10 50
14 13 2 -13 10 -31 19 -41 11 -12 13 -22 7 -32 -5 -8 -10 -32 -10 -52 0 -28 7
-44 27 -63 15 -14 32 -25 38 -26 5 -1 20 -2 31 -2 31 -3 114 -99 114 -131 0
-41 27 -95 52 -105 26 -10 86 2 104 21 12 13 17 37 15 69 -2 27 -41 60 -69 59
-80 -6 -100 0 -138 37 -29 30 -34 39 -20 41 20 4 48 -16 41 -29 -3 -4 4 -13
16 -20 47 -25 94 38 53 72 -12 10 -29 10 -74 3 -49 -8 -57 -8 -48 3 6 8 8 16
5 19 -3 3 1 24 8 45 13 37 13 41 -5 59 -20 20 -28 22 -88 24 -36 1 -37 3 -86
109 -14 32 -33 60 -41 63 -21 9 -19 25 3 17 9 -3 14 -3 11 1 -4 4 -16 9 -29
11 -12 2 -28 9 -36 15 -7 7 -19 8 -25 4 -7 -4 -9 -3 -6 3 4 6 -11 31 -33 56
-35 39 -38 46 -23 51 10 3 20 5 23 4 3 -1 16 4 29 11 14 8 68 14 135 15 135 3
168 -8 186 -65 21 -62 41 -74 127 -74 l75 0 81 86 c53 56 98 93 127 106 25 11
54 31 65 43 11 13 13 20 5 15 -22 -13 -88 -6 -134 14 -89 40 -127 44 -190 22
-70 -24 -139 -74 -163 -119 -12 -23 -22 -30 -33 -25 -8 4 -55 9 -104 13 l-89
5 56 42 c32 24 72 44 94 48 20 3 48 16 61 28 21 19 73 114 78 142 1 6 5 18 9
27 7 17 5 17 -21 3 -16 -8 -46 -15 -66 -15 -82 0 -119 -39 -140 -145 -16 -82
-65 -135 -128 -142 -25 -2 -64 -10 -87 -18 -24 -8 -44 -12 -44 -9 -6 19 -1 35
23 74 15 25 35 61 44 80 9 19 30 51 48 71 17 20 47 62 66 93 19 32 44 59 56
62 19 5 70 61 62 69 -9 9 -110 -97 -139 -145 -29 -49 -49 -73 -55 -67 -2 1 7
29 18 62 33 97 38 116 27 109 -6 -3 -17 2 -25 12 -14 18 -14 18 -5 -3 6 -12
11 -30 11 -40 0 -25 -45 -163 -66 -205 -20 -39 -55 -88 -63 -88 -5 0 -6 262
-2 292 1 4 22 27 48 53 41 40 49 43 55 28 7 -14 7 -13 4 5 -3 17 6 33 35 62
21 21 39 35 39 33 0 -3 -7 -32 -16 -65 -8 -33 -13 -62 -11 -65 3 -2 13 30 23
72 l19 76 159 158 159 158 111 -24 c392 -84 618 -204 697 -369 39 -82 43 -174
18 -355 -9 -68 -20 -145 -23 -170 -7 -51 -51 -263 -67 -324 -6 -22 -13 -47
-14 -55 -2 -8 -15 -58 -30 -110 -92 -331 -105 -411 -81 -493 16 -57 29 -49 28
21 0 31 6 75 13 97 6 22 12 42 13 45 1 6 1 7 56 171 111 336 162 535 209 819
14 80 25 173 26 207 2 70 -20 166 -54 233 -84 167 -305 297 -655 386 -58 14
-110 29 -117 33 -8 4 83 103 240 263 139 142 375 383 524 535 150 153 282 289
293 303 12 14 56 65 98 114 97 111 104 123 63 101 -17 -8 -55 -30 -83 -47 -29
-17 -95 -55 -146 -85 -105 -61 -212 -134 -272 -186 -8 -7 -49 -41 -90 -74 -41
-34 -91 -75 -110 -92 -19 -17 -35 -29 -37 -27 -3 3 -10 156 -18 389 -3 93 -8
203 -10 245 -2 42 -7 155 -10 251 -3 96 -8 178 -11 183 -3 4 -24 8 -48 8 -33
0 -48 6 -67 26 -35 38 -76 54 -113 43 -17 -5 -44 -7 -61 -3 l-30 6 35 -20 c19
-11 55 -23 80 -27 103 -17 76 -24 -105 -24 l-190 0 40 18 c22 11 35 20 29 20
-6 1 -26 -7 -45 -16 -27 -14 -66 -19 -187 -21 l-153 -4 5 32 c2 18 6 33 8 34
2 2 12 8 23 14 20 11 20 12 -2 18 -21 6 -23 13 -23 64 0 152 -109 254 -295
275 -32 4 -65 14 -73 22 -12 12 -17 12 -33 -3 -11 -9 -19 -13 -19 -7 0 24 36
42 72 37 31 -5 41 -2 63 20 l26 27 -18 32 c-24 41 -66 45 -101 10 -18 -18 -22
-30 -17 -51 5 -23 0 -33 -25 -55 -16 -15 -33 -27 -38 -27 -16 0 -7 89 11 110
10 12 23 32 29 46 6 13 19 24 29 24 30 0 77 47 74 74 -4 29 -22 66 -35 67 -6
1 -16 2 -22 3 -22 3 -57 -16 -63 -34 -6 -19 -1 -75 10 -102 4 -10 -3 -31 -18
-53 -16 -23 -27 -32 -30 -23 -2 7 4 23 15 35 26 28 16 63 -18 63 -14 0 -27 -7
-31 -16 -6 -15 -2 -30 21 -84 5 -12 -3 -15 -40 -16 -25 -1 -50 -6 -56 -12 -11
-11 -14 -59 -4 -88 6 -19 0 -22 -51 -34 -82 -19 -83 -19 -83 -9 0 5 5 9 11 9
7 0 9 10 5 25 -4 14 -9 50 -11 80 -4 43 -2 55 9 55 19 0 35 21 42 58 5 25 1
36 -20 57 -24 24 -27 25 -55 11 -52 -28 -57 -86 -11 -126 11 -10 20 -37 25
-75 6 -51 5 -57 -7 -44 -23 29 -55 29 -84 1 -23 -23 -25 -32 -20 -69 4 -32 2
-43 -8 -43 -31 0 -27 113 4 130 41 22 49 39 45 90 -3 28 -9 59 -15 70 -6 10
-46 38 -89 60 -50 26 -92 56 -112 81 -33 40 -57 52 -44 22z m665 -468 c17 -31
40 -32 72 -2 21 19 30 22 59 14 124 -30 188 -122 148 -210 -8 -17 -8 -31 -1
-42 7 -13 5 -26 -7 -47 l-16 -29 -258 2 c-141 1 -279 6 -306 12 -46 9 -49 11
-54 46 -3 20 -9 50 -12 67 -6 26 -1 37 24 66 17 19 35 47 40 61 11 28 53 44
180 70 102 21 116 20 131 -8z m-327 -62 c-8 -24 -56 -93 -64 -93 -11 0 -41 50
-37 62 3 9 80 46 100 47 4 1 5 -7 1 -16z m-80 -108 c33 -66 48 -125 31 -125
-3 0 -15 6 -27 12 -14 8 -70 13 -150 14 -71 1 -133 6 -139 12 -9 9 43 52 125
101 42 25 109 60 117 60 3 1 22 -33 43 -74z m-633 -87 c107 -41 90 -52 -88
-58 -98 -3 -152 -1 -152 5 0 21 18 37 66 61 57 28 82 27 174 -8z m75 12 c3 -5
1 -10 -4 -10 -6 0 -11 5 -11 10 0 6 2 10 4 10 3 0 8 -4 11 -10z m544 -60 c10
-6 -37 -10 -131 -10 -81 0 -149 4 -152 9 -4 5 0 11 6 14 22 8 261 -4 277 -13z
m-492 -5 c-11 -7 -26 -11 -34 -8 -12 5 -12 7 -1 14 7 5 22 9 33 9 19 -1 19 -1
2 -15z m1140 -137 c-4 -14 -62 -12 -87 3 -10 5 3 8 38 9 39 0 52 -4 49 -12z
m181 -17 c9 -5 42 -19 72 -32 89 -39 175 -112 239 -204 86 -122 205 -373 298
-625 19 -52 38 -104 43 -115 5 -11 14 -37 20 -58 l12 -37 -73 -68 c-41 -37
-179 -172 -308 -299 -155 -154 -242 -233 -256 -233 -36 1 -136 28 -152 42 -12
9 -15 9 -9 1 8 -14 -18 -11 -111 12 -29 7 -53 10 -53 7 0 -4 -4 -2 -8 5 -11
18 -9 983 3 985 5 1 25 -18 44 -43 l34 -44 -6 67 c-3 37 -8 72 -11 76 -3 5 -8
33 -11 63 -4 29 -11 59 -16 65 -12 15 -1 44 17 44 8 0 14 -3 14 -7 0 -5 31
-30 68 -57 41 -30 75 -64 86 -85 23 -48 34 -61 81 -96 37 -27 47 -30 115 -29
41 0 118 5 170 10 l95 9 -82 62 c-114 85 -201 111 -318 93 -27 -4 -59 -5 -71
-1 -28 7 -165 114 -156 121 4 3 8 12 10 20 7 30 46 100 56 100 6 0 31 -14 55
-30 24 -17 48 -30 53 -30 7 0 11 24 11 85 0 57 -4 68 -33 95 -32 30 -33 24 5
128 5 14 47 16 73 3z m-215 -68 c-14 -42 -67 -153 -72 -153 -4 0 -7 25 -6 56
0 52 3 59 35 85 39 33 52 36 43 12z m-1143 -74 c0 -27 -3 -48 -7 -46 -5 3 -17
1 -28 -4 -18 -8 -17 -8 5 -6 19 1 26 -3 28 -20 4 -24 3 -25 -40 -27 -17 -1
-28 3 -28 11 0 14 60 143 67 143 1 0 3 -23 3 -51z m0 -125 c0 -8 -4 -12 -10
-9 -5 3 -10 10 -10 16 0 5 5 9 10 9 6 0 10 -7 10 -16z m-60 -44 c0 -5 -9 -14
-20 -20 -17 -9 -20 -8 -20 10 0 13 7 20 20 20 11 0 20 -4 20 -10z m11 -29
c-13 -11 -20 -24 -17 -30 4 -5 2 -28 -3 -50 -7 -33 -4 -54 20 -123 30 -89 33
-116 17 -160 -8 -21 -5 -35 12 -67 19 -33 22 -50 18 -105 -3 -37 -11 -72 -17
-80 -9 -11 -8 -17 4 -29 16 -17 22 -113 6 -103 -12 8 -65 119 -86 181 -29 87
-43 187 -43 309 -1 115 0 120 27 155 39 50 45 71 21 71 -30 0 -24 14 13 33 44
22 55 21 28 -2z m49 -126 c0 -80 -3 -145 -7 -145 -11 0 -54 140 -53 174 0 33
37 116 51 116 5 0 9 -64 9 -145z m1085 -1305 c21 -41 62 -67 83 -53 10 5 24 9
33 8 12 -2 15 3 11 21 -4 20 0 24 19 24 13 0 29 -4 34 -8 24 -16 -4 -90 -28
-75 -5 3 -7 2 -4 -3 3 -6 -32 -50 -79 -99 -46 -49 -84 -87 -85 -84 -2 9 -4
299 -2 299 1 0 9 -13 18 -30z m216 -33 c-13 -13 -26 -3 -16 12 3 6 11 8 17 5
6 -4 6 -10 -1 -17z m-1305 -1284 c-2 -3 -13 0 -23 6 -19 10 -27 7 -140 -47
-18 -8 -33 -19 -33 -23 0 -14 58 -49 84 -51 14 -1 26 -5 26 -8 -1 -11 -152
-117 -212 -147 -84 -44 -91 -43 -84 8 14 99 105 371 176 526 11 24 20 46 20
49 0 4 42 92 93 197 l92 190 3 -348 c1 -191 0 -350 -2 -352z"/>
<path d="M2681 4331 c-22 -6 -22 -7 10 -22 30 -13 53 -15 109 -10 21 2 -51 40
-75 40 -11 -1 -31 -4 -44 -8z"/>
<path d="M2963 4296 c-30 -23 -57 -35 -91 -40 -64 -8 -102 -55 -102 -126 0
-15 -6 -31 -12 -33 -7 -3 20 -6 60 -6 40 -1 82 3 92 9 22 12 82 94 98 135 12
30 14 95 3 95 -3 0 -25 -15 -48 -34z"/>
<path d="M3296 3875 c-13 -14 -32 -25 -42 -25 -25 -1 56 -37 95 -43 16 -3 34
-8 40 -12 7 -4 8 0 5 10 -8 20 -51 39 -79 36 -19 -3 -19 -2 -4 15 40 47 26 64
-15 19z"/>
<path d="M3245 3820 c27 -12 43 -12 25 0 -8 5 -22 9 -30 9 -10 0 -8 -3 5 -9z"/>
<path d="M3290 3807 c0 -3 12 -12 26 -22 15 -9 23 -12 20 -6 -7 11 -46 35 -46
28z"/>
<path d="M3390 3715 c8 -36 8 -37 -34 -55 -23 -11 -63 -40 -88 -65 -41 -40
-51 -45 -94 -46 -36 -2 -27 -4 36 -10 116 -11 215 5 252 42 19 19 34 25 49 22
18 -5 20 -2 18 24 -2 17 3 38 11 48 13 15 12 17 -11 14 -15 -2 -34 5 -49 19
-13 12 -36 22 -50 22 -14 0 -31 5 -37 11 -9 9 -9 2 -3 -26z"/>
<path d="M3148 2725 c-3 -3 -4 -27 -2 -53 3 -36 11 -53 32 -71 l27 -24 7 43
c8 44 -2 75 -31 97 -18 14 -25 15 -33 8z"/>
<path d="M3338 2620 c-55 -30 -78 -65 -78 -121 0 -26 -4 -51 -10 -54 -5 -3
-10 -11 -10 -17 0 -19 51 45 70 88 10 23 30 60 44 83 15 22 25 41 24 41 -2 -1
-19 -10 -40 -20z"/>
<path d="M3056 2512 c4 -9 8 -46 9 -80 1 -74 18 -94 95 -109 l45 -9 -1 65 c0
37 -1 71 -2 78 -2 12 -72 49 -122 63 -28 8 -31 7 -24 -8z"/>
<path d="M3230 2326 c0 -8 4 -17 9 -20 5 -4 7 3 4 14 -6 23 -13 26 -13 6z"/>
<path d="M2624 4555 c-21 -50 -18 -58 13 -50 39 9 51 32 37 69 -10 27 -34 18
-50 -19z"/>
<path d="M1474 4355 c5 -11 11 -30 13 -42 5 -20 38 -56 88 -93 19 -14 19 -14
4 5 -9 11 -19 33 -23 48 -7 28 -31 58 -70 88 -18 13 -19 12 -12 -6z"/>
<path d="M3834 4310 c-6 -6 -30 -14 -55 -18 -38 -6 -47 -12 -62 -44 -20 -41
-15 -114 7 -101 6 4 22 9 36 10 75 9 85 19 96 99 3 27 8 52 11 57 6 11 -21 9
-33 -3z"/>
<path d="M4008 4277 c-27 -7 -42 -20 -59 -51 -14 -25 -17 -36 -8 -29 9 7 26
10 40 8 13 -2 31 1 40 8 27 21 52 79 32 76 -5 -1 -24 -6 -45 -12z"/>
<path d="M3535 4242 c-34 -29 -46 -66 -29 -91 8 -12 13 -25 9 -30 -3 -5 13 -2
35 7 45 19 52 30 55 90 2 39 0 42 -24 42 -14 -1 -35 -8 -46 -18z"/>
<path d="M1660 4180 c8 -5 26 -9 40 -9 l25 1 -25 8 c-14 4 -32 8 -40 9 -13 1
-13 0 0 -9z"/>
<path d="M1553 3612 c-6 -4 -15 -20 -18 -35 -7 -24 -4 -28 24 -33 17 -4 34
-11 37 -15 3 -5 10 -7 15 -3 6 4 7 10 0 17 -5 7 -11 25 -13 42 -3 30 -22 42
-45 27z"/>
<path d="M1480 3542 c-23 -7 -50 -34 -44 -43 10 -16 40 -9 63 15 23 24 13 39
-19 28z"/>
<path d="M1660 3480 c-8 -5 -10 -10 -5 -10 6 0 17 5 25 10 8 5 11 10 5 10 -5
0 -17 -5 -25 -10z"/>
<path d="M1515 3470 c-3 -5 -3 -10 1 -10 4 0 -5 -9 -20 -21 -34 -26 -33 -36 4
-44 17 -4 30 -10 30 -15 0 -18 43 5 70 39 36 43 36 46 8 48 -13 1 -37 5 -55 8
-17 3 -34 1 -38 -5z"/>
<path d="M3640 1977 c-31 -16 -48 -34 -64 -67 l-22 -45 46 1 c25 1 50 2 56 3
12 1 89 109 83 116 -15 14 -62 10 -99 -8z"/>
<path d="M3468 1883 c-29 -18 -51 -58 -42 -76 3 -7 -8 4 -25 23 l-31 34 0 -26
c0 -15 7 -33 15 -42 8 -8 15 -25 16 -38 0 -15 3 -18 6 -8 4 8 12 20 19 25 11
9 78 125 71 125 -1 0 -14 -8 -29 -17z"/>
<path d="M3429 1751 c-13 -22 -28 -36 -33 -33 -5 3 -6 1 -3 -4 7 -13 -9 -39
-24 -39 -7 0 -13 -8 -15 -18 -2 -15 0 -16 13 -5 18 15 95 129 90 134 -2 2 -14
-14 -28 -35z"/>
<path d="M3437 1712 c-20 -21 -37 -44 -37 -51 0 -7 -14 -26 -31 -42 -27 -25
-28 -28 -8 -21 17 7 32 4 55 -10 29 -17 75 -22 117 -11 10 3 29 22 43 44 13
21 30 39 37 39 7 0 20 13 30 29 l17 29 -49 16 c-28 9 -69 16 -93 16 -38 0 -49
-5 -81 -38z"/>
<path d="M3323 1165 c-36 -15 -46 -36 -37 -80 5 -28 3 -34 -17 -40 -22 -7 -22
-8 -5 -21 11 -7 38 -16 62 -20 46 -7 51 -15 45 -81 -2 -28 61 -52 84 -33 27
22 16 46 -32 73 l-48 27 33 0 c18 0 52 -5 76 -11 36 -9 45 -16 55 -45 13 -35
33 -49 87 -58 39 -7 78 35 70 77 -14 71 -95 103 -144 56 -19 -17 -29 -19 -70
-13 -26 5 -58 8 -72 7 l-24 0 29 22 c73 59 -5 177 -92 140z m32 -146 c26 -8
25 -8 -14 -5 -24 3 -49 10 -55 17 -11 12 -8 12 69 -12z"/>
<path d="M3120 943 c-23 -26 -54 -126 -42 -137 11 -12 66 79 72 120 8 51 2 54
-30 17z"/>
<path d="M3245 805 c-16 -77 -16 -81 -3 -60 12 19 22 85 13 85 -3 0 -7 -11
-10 -25z"/>
<path d="M3260 757 c0 -4 6 -20 14 -35 27 -54 27 -68 1 -96 -20 -22 -23 -31
-14 -42 6 -8 20 -14 32 -14 17 0 19 4 13 43 l-6 42 22 -34 c21 -32 21 -35 5
-63 -21 -37 -21 -60 -2 -98 31 -60 125 -33 127 36 2 63 -35 104 -82 89 -12 -4
-22 8 -41 47 -30 65 -69 136 -69 125z"/>
<path d="M3195 680 c-16 -17 -37 -30 -47 -30 -10 0 -27 -9 -38 -20 -17 -17
-18 -24 -8 -52 18 -50 34 -63 64 -50 13 7 24 15 25 19 1 11 5 30 24 97 8 32
14 60 12 62 -2 2 -16 -10 -32 -26z"/>
<path d="M2720 213 c-44 -5 -65 -41 -48 -79 6 -13 15 -24 19 -24 16 0 39 13
39 22 0 5 11 24 25 42 22 28 24 50 6 44 -3 -1 -22 -3 -41 -5z"/>
<path d="M2774 157 c2 -28 -1 -40 -12 -45 -29 -11 -52 -42 -48 -64 3 -13 5
-26 5 -30 1 -5 9 -8 20 -8 23 0 55 46 47 67 -5 11 -2 13 10 9 9 -3 27 -9 40
-12 23 -6 25 -4 21 31 -3 32 -9 40 -38 52 -18 7 -37 19 -41 26 -5 7 -7 -5 -4
-26z"/>
</g>
</svg>
