
<svg xmlns="http://www.w3.org/2000/svg" viewBox="0 0 521.09 162.62"><defs><style>.cls-1,.cls-3{fill:#fff;}.cls-2{fill:#e9f2f4;}.cls-3{font-size:115px;font-family:FuturaPT-Medium, Futura PT;font-weight:500;}</style></defs><title>White Logo</title><g id="OBJECTS"><path class="cls-1" d="M174.62,120.59c-12.61-10-23.23-22.75-31.94-37.2-4.51-7.48-11.9-23.66-14.59-33.2,6.42,6.87,21.48,19.34,28.44,27s12.78,17,15.38,27.91c.68,2.82,1.13,5.73,1.61,8.62.58,3.52,1.1,6.85,1.1,6.85" transform="translate(-3.51 -1.56)"/><path class="cls-1" d="M132.46,98.83c-1.63-.91-3.24-1.85-4.83-2.8s-3.19-1.93-4.76-2.92c-13.36-8.24-16.63-10.2-27.88-20.7-1.14-1.24-11.11-11.8-12.21-13-6.29-7.1-11.34-12-18.18-16.56,6.78,0,25.49,1.52,40.9,14.31,9,7.46,14.83,18.78,20.69,29.25.73,1.34,1.47,2.69,2.19,4.06,1.44,2.73,2.8,5.54,4.08,8.4" transform="translate(-3.51 -1.56)"/><path class="cls-1" d="M164.73,136.6q-2.21-.87-4.44-1.63c-7.66-2.64-16.28-2.44-24.39-2.81-8.38-.39-16.86-.65-25.3.59-11.56,1.71-17.79,1.84-26.4,1,10.68,6,25.38,12.37,37.62,13.59a61.37,61.37,0,0,0,37-7.93c2.19-1,4.42-2,6.66-3" transform="translate(-3.51 -1.56)"/><path class="cls-1" d="M35.49,110.43c20.44,7,42-3.06,62.85-2.65a48.88,48.88,0,0,1,17,3.21l0,.15c-2,.83-4,1.74-5.94,2.66-1.25.59-2.5,1.18-3.75,1.75-20.54,9.27-43.37,10.68-63.11-.34a51.48,51.48,0,0,1-7.15-4.78" transform="translate(-3.51 -1.56)"/><path class="cls-1" d="M91.55,94.87Q81,96.48,70.47,97.77c-7.49.91-15.1,1.94-22.56,1.85a119.91,119.91,0,0,1-24.15-3.2A88.5,88.5,0,0,1,3.51,89.75c4.46-.66,8.86-2.12,13.29-3.29,25.58-6.79,52.3-3.79,74.75,8.41" transform="translate(-3.51 -1.56)"/><path class="cls-1" d="M133.32,59a311.78,311.78,0,0,1,34.42,50.8c4.75,8.87,9.21,18.36,15.68,26.17-12-7.18-24.08-14.35-36.44-21a59.78,59.78,0,0,1-8.93-9.69c-5.5-7.14-10.29-14.8-15.61-22.07-13-17.72-29.07-32.49-50.68-38.41-.19-.05-.31.22-.12.29,22.25,8,38.21,23.74,51.6,42.69,5,7.13,9.7,14.61,15.26,21.36.7.85,1.42,1.68,2.16,2.5-.46-.24-.91-.49-1.37-.72C110.16,96.17,77.81,89.16,45.22,88.76A291.65,291.65,0,0,0,11.79,90.4c-.2,0-.15.32.05.31,25.22-1.59,50.68-.84,75.51,4.18a190.17,190.17,0,0,1,38.28,12.3c-11.2,1-22.1,5.09-33,7.37a105.71,105.71,0,0,1-51.39-1.74c-.19,0-.31.21-.12.29,15.73,6.17,32.24,7.07,48.79,4,13.06-2.4,25.69-6.56,38.83-8.61,6.78,3,13.44,6.4,20,10,.43.25.86.48,1.3.71,8.42,4.6,16.75,9.51,25.1,14.56l1.36.82c-10.56-.42-21.39,3-31.68,4.57a122.64,122.64,0,0,1-52.53-2.92c-.18-.06-.31.21-.11.28,15.75,6.2,32.49,7.32,49.19,5.16,12.61-1.63,25.1-5.22,37.87-5.45,14.4,8.66,28.92,17.1,44.31,23.91.8.35,1.27-.86.51-1.24-12.27-6.23-24.14-13.16-35.95-20.18-8.08-9.8-13.73-21-19.78-32.13C158.81,89.15,147.52,73,133.57,58.77,133.43,58.63,133.19,58.81,133.32,59Z" transform="translate(-3.51 -1.56)"/><path class="cls-1" d="M158.66,57.76A20.94,20.94,0,0,1,161.39,64c.29.91.59,1.85.93,2.76.73,1.94,2.27,5,5,6.49A5.69,5.69,0,0,1,169.76,76a16.44,16.44,0,0,0,1.41,2.65,7.56,7.56,0,0,1,1.2,3c4.81,25.3,18.13,50.28,38,71,.65.68,1.3,1.35,2,2a80.15,80.15,0,0,1,8.32,9.51l.93-.65a81.13,81.13,0,0,0-8.44-9.65c-.65-.67-1.31-1.34-2-2-19.53-20.37-32.68-44.86-37.57-69.7a9.65,9.65,0,0,1,.38-5.08v0a4.06,4.06,0,0,1,2.33-2.42,11.66,11.66,0,0,0,1.47-.72,16.82,16.82,0,0,0,2.93-2.2,15.31,15.31,0,0,0,4.31-9.18c.9.41,1.8.84,2.67,1.27a36.18,36.18,0,0,0,8.67,3.36c4.73,1,9.36,1.65,14.1-.26a31.19,31.19,0,0,0,4-2,19.14,19.14,0,0,0,7.1-6.57.53.53,0,0,0,0-.49.54.54,0,0,0-.36-.33,33.2,33.2,0,0,1-7-3.32,42.07,42.07,0,0,0-5.68-2.89,36.63,36.63,0,0,0-10.67-2c.77-.45,1.53-1,2.27-1.45,1-.65,1.91-1.27,2.86-1.78,2.5-1.36,5.32-3,7.2-5.59a23.53,23.53,0,0,0,3.71-7.1,18.79,18.79,0,0,0-.9-12c-.6-1.45-1.29-2.76-2-4a37.11,37.11,0,0,1-2.1-4.4l-.11-.27c-.74-1.93-1.58-4.11-1.09-6a.57.57,0,0,0-.19-.59A.6.6,0,0,0,207,6c-5.79,2.94-11.18,9-11.86,15.47A41.91,41.91,0,0,0,192.62,17l-.43-.68c-1.13-1.82-2.24-3.7-3.28-5.59-1.42-2.56-2.9-5.55-2.5-8.54a.56.56,0,0,0-.35-.6.55.55,0,0,0-.67.2l-.34.47c-2.26,3.15-4.58,6.39-4.68,11L175.25,2.66a.57.57,0,0,0-.87-.2,53,53,0,0,1-6.72,4.38c-1.4.81-2.83,1.64-4.21,2.55a26.89,26.89,0,0,1-1.1-2.85c-.23-.69-.44-1.33-.68-1.92a.58.58,0,0,0-.41-.35.58.58,0,0,0-.51.15c-.15.14-.33.33-.52.53a9.13,9.13,0,0,1-1.09,1,7.18,7.18,0,0,0-2.92,3.33,19.64,19.64,0,0,0-5.39-4.21c-.63-.38-1.25-.76-1.83-1.15a.59.59,0,0,0-.7,0,.58.58,0,0,0-.12.69c1.53,2.87.64,6.35,0,8.17A40.08,40.08,0,0,1,146.26,17c-.63,1.27-1.28,2.57-1.8,3.92a23.29,23.29,0,0,0-.81,14.15,24,24,0,0,0,3.58,7.62,22.84,22.84,0,0,1-4.64-5.81,45.72,45.72,0,0,1-2-4.25,46.14,46.14,0,0,0-2.13-4.51c-2.06-3.62-5-6.12-7.81-6.7a.56.56,0,0,0-.53.18.57.57,0,0,0-.12.56c.5,1.44,0,3-.43,4.62a16.86,16.86,0,0,0-.68,2.91,11.63,11.63,0,0,0,1.66,6.75,28,28,0,0,0,8.67,9.27,78.25,78.25,0,0,0,11,6.14C153.23,53.33,156.62,55,158.66,57.76Z" transform="translate(-3.51 -1.56)"/><path class="cls-2" d="M158.66,57.76A20.94,20.94,0,0,1,161.39,64c.29.91.59,1.85.93,2.76.73,1.94,2.27,5,5,6.49A5.69,5.69,0,0,1,169.76,76a16.44,16.44,0,0,0,1.41,2.65,7.56,7.56,0,0,1,1.2,3c4.81,25.3,18.13,50.28,38,71,.65.68,1.3,1.35,2,2a80.15,80.15,0,0,1,8.32,9.51l.93-.65a81.13,81.13,0,0,0-8.44-9.65c-.65-.67-1.31-1.34-2-2-19.53-20.37-32.68-44.86-37.57-69.7a9.65,9.65,0,0,1,.38-5.08v0a4.06,4.06,0,0,1,2.33-2.42,11.66,11.66,0,0,0,1.47-.72,16.82,16.82,0,0,0,2.93-2.2,15.31,15.31,0,0,0,4.31-9.18c.9.41,1.8.84,2.67,1.27a36.18,36.18,0,0,0,8.67,3.36c4.73,1,9.36,1.65,14.1-.26a31.19,31.19,0,0,0,4-2,19.14,19.14,0,0,0,7.1-6.57.53.53,0,0,0,0-.49.54.54,0,0,0-.36-.33,33.2,33.2,0,0,1-7-3.32,42.07,42.07,0,0,0-5.68-2.89,36.63,36.63,0,0,0-10.67-2c.77-.45,1.53-1,2.27-1.45,1-.65,1.91-1.27,2.86-1.78,2.5-1.36,5.32-3,7.2-5.59a23.53,23.53,0,0,0,3.71-7.1,18.79,18.79,0,0,0-.9-12c-.6-1.45-1.29-2.76-2-4a37.11,37.11,0,0,1-2.1-4.4l-.11-.27c-.74-1.93-1.58-4.11-1.09-6a.57.57,0,0,0-.19-.59A.6.6,0,0,0,207,6c-5.79,2.94-11.18,9-11.86,15.47A41.91,41.91,0,0,0,192.62,17l-.43-.68c-1.13-1.82-2.24-3.7-3.28-5.59-1.42-2.56-2.9-5.55-2.5-8.54a.56.56,0,0,0-.35-.6.55.55,0,0,0-.67.2l-.34.47c-2.26,3.15-4.58,6.39-4.68,11L175.25,2.66a.57.57,0,0,0-.87-.2,53,53,0,0,1-6.72,4.38c-1.4.81-2.83,1.64-4.21,2.55a26.89,26.89,0,0,1-1.1-2.85c-.23-.69-.44-1.33-.68-1.92a.58.58,0,0,0-.41-.35.58.58,0,0,0-.51.15c-.15.14-.33.33-.52.53a9.13,9.13,0,0,1-1.09,1,7.18,7.18,0,0,0-2.92,3.33,19.64,19.64,0,0,0-5.39-4.21c-.63-.38-1.25-.76-1.83-1.15a.59.59,0,0,0-.7,0,.58.58,0,0,0-.12.69c1.53,2.87.64,6.35,0,8.17A40.08,40.08,0,0,1,146.26,17c-.63,1.27-1.28,2.57-1.8,3.92a23.29,23.29,0,0,0-.81,14.15,24,24,0,0,0,3.58,7.62,22.84,22.84,0,0,1-4.64-5.81,45.72,45.72,0,0,1-2-4.25,46.14,46.14,0,0,0-2.13-4.51c-2.06-3.62-5-6.12-7.81-6.7a.56.56,0,0,0-.53.18.57.57,0,0,0-.12.56c.5,1.44,0,3-.43,4.62a16.86,16.86,0,0,0-.68,2.91,11.63,11.63,0,0,0,1.66,6.75,28,28,0,0,0,8.67,9.27,78.25,78.25,0,0,0,11,6.14C153.23,53.33,156.62,55,158.66,57.76ZM157,15A28.25,28.25,0,0,0,150.16,30a24.55,24.55,0,0,0,5.45,18l-1-.5c-.88-.46-1.78-.93-2.67-1.42-3.1-2.17-6.07-6.77-7.22-11.22a22.2,22.2,0,0,1,.77-13.46c.5-1.3,1.14-2.58,1.76-3.82a42.54,42.54,0,0,0,1.93-4.28,12.45,12.45,0,0,0,.63-7.43l.4.25C153.61,8.12,157.07,10.24,157,15Zm4-9.17c.12.33.24.67.36,1A24.4,24.4,0,0,0,162.51,10c-.25.17-.5.34-.74.52A29.88,29.88,0,0,0,158,13.84a8.31,8.31,0,0,0-1-3.24c.19-1.62,1.22-2.65,2.7-3.67A9,9,0,0,0,160.92,5.87Zm13.61-2.08L185.25,25.9c1.88,3.86,3.81,7.86,4.19,12.18.42,4.87-2,11.75-6.26,14.27-.36.1-.72.17-1.1.26l-.67.14a21.21,21.21,0,0,0-9.23,4.51,25.45,25.45,0,0,0-3.6,3.84c1.27-6.66,1-12.94.71-18.16-.08-1.55-.15-3-.17-4.34-.11-6.48-.06-14.71,2.64-20.68.13-.29,1-2.31.77-2.4s-1.16,1.83-1.29,2.12c-2.8,6.17-3.36,14.37-3.26,21,0,1.34.09,2.82.17,4.39.29,5.9.65,13.17-1.33,20.75-.51-3.2-1-6.5-2.85-9.25a15.73,15.73,0,0,0-5-4.63,23.54,23.54,0,0,1-7.71-19.76,27.94,27.94,0,0,1,11.16-18.64,64.67,64.67,0,0,1,5.79-3.65A57.28,57.28,0,0,0,174.53,3.79Zm13.38,7.5c1.06,1.91,2.17,3.8,3.32,5.64l.42.68a34.94,34.94,0,0,1,2.76,5,21.26,21.26,0,0,1,1.49,8.67,29.79,29.79,0,0,1-7.48,18.57h0a13.54,13.54,0,0,0-1.69.89A19.14,19.14,0,0,0,190.57,38c-.39-4.53-2.47-8.8-4.29-12.57L181.73,16c-.93-5.23,1.18-8.78,3.51-12.08A18.71,18.71,0,0,0,187.91,11.29Zm7.88,37.84-.59,0a25.21,25.21,0,0,0,8.16-12.44c1.46-5.1,1.46-10.41,1.64-15.57,0-.32,0-1.69-.31-1.7s-.35,1.38-.36,1.69a63.24,63.24,0,0,1-2.06,15.27c-1.49,5.19-5,10.14-8.93,12.67a15.71,15.71,0,0,0-3,.23,31,31,0,0,0,6.67-18,25.07,25.07,0,0,0-.54-5.8h0c-1.68-7.09,3.79-14.34,10-17.93a14.17,14.17,0,0,0,1.3,5.52l.11.27a39.52,39.52,0,0,0,2.16,4.52A42,42,0,0,1,212,21.76a17.71,17.71,0,0,1,.85,11.32,22.93,22.93,0,0,1-3.53,6.71c-1.74,2.39-4.43,4-6.82,5.26-1,.54-2,1.2-3,1.84A27.78,27.78,0,0,1,195.79,49.13ZM177.51,59.48c-3.56.28-7.08,2.54-9.57,4.89a19.76,19.76,0,0,1,5-6.26,20,20,0,0,1,8.74-4.25l.65-.15a15.27,15.27,0,0,0,2.4-.65,16.07,16.07,0,0,0,2.22-1.16,13.38,13.38,0,0,1,1.89-1c2.19-.93,4.77-.76,7-.6,4.14.27,8.41.56,12.32,2.08a41.63,41.63,0,0,1,5.53,2.81,36.59,36.59,0,0,0,6.56,3.21c-2.7,4.09-8,6.55-10.2,7.44-4.45,1.8-8.9,1.12-13.45.21a35.27,35.27,0,0,1-8.4-3.27c-1.12-.55-2.27-1.11-3.44-1.62l-.08,0-.41-.19A14.65,14.65,0,0,0,177.51,59.48Zm-6.59,14.3a4.56,4.56,0,0,1-1.39-1.15,12.41,12.41,0,0,1-1.05-2,5.71,5.71,0,0,1,1.71-6.73,14.69,14.69,0,0,1,7.41-3.32A13.91,13.91,0,0,1,184,62h0a14.17,14.17,0,0,1-4,8.84C176,74.5,172.78,74.56,170.92,73.78ZM159.57,57.09c-2.2-3-5.73-4.73-8.84-6.24a76.53,76.53,0,0,1-10.87-6,26.86,26.86,0,0,1-8.32-8.88A10.59,10.59,0,0,1,130,29.84a16.58,16.58,0,0,1,.63-2.71,10.71,10.71,0,0,0,.66-4.32c2.23.81,4.48,3,6.16,5.9a46.4,46.4,0,0,1,2.08,4.4c.62,1.44,1.27,2.94,2.05,4.35a23.93,23.93,0,0,0,7.52,8.17c.72.49,1.48.94,2.24,1.37h0l0,0c.91.5,1.83,1,2.73,1.45,1.46.75,2.87,1.49,4.18,2.31.06,0,.28.16.42.26a14.44,14.44,0,0,1,4.3,4.08c1.68,2.56,2.19,5.77,2.69,8.87.14.85.28,1.71.44,2.56a.09.09,0,0,1,0,0A19.83,19.83,0,0,0,168,72.37c-2.52-1.25-4-4.19-4.66-6-.33-.88-.62-1.81-.91-2.71A22,22,0,0,0,159.57,57.09Z" transform="translate(-3.51 -1.56)"/><text class="cls-3" transform="translate(173.11 130.79)">Feelings</text></g></svg>